<?xml version="1.0" standalone="no"?>
<!DOCTYPE svg PUBLIC "-//W3C//DTD SVG 20010904//EN"
 "http://www.w3.org/TR/2001/REC-SVG-20010904/DTD/svg10.dtd">
<svg version="1.0" xmlns="http://www.w3.org/2000/svg"
 width="251.000000pt" height="200.000000pt" viewBox="0 0 251.000000 200.000000"
 preserveAspectRatio="xMidYMid meet">

<g transform="translate(0.000000,200.000000) scale(0.100000,-0.100000)"
fill="#FFC312" stroke="none">
<path d="M470 1991 c-75 -23 -126 -66 -163 -136 -18 -34 -22 -65 -28 -220 -8
-209 -27 -312 -75 -412 -39 -81 -93 -134 -158 -155 l-41 -13 -3 -56 -3 -56 43
-11 c65 -16 122 -72 162 -155 48 -100 66 -202 75 -412 6 -156 10 -186 29 -221
27 -53 70 -96 119 -120 36 -18 72 -19 828 -19 761 0 791 1 829 19 50 25 97 73
121 122 15 31 20 74 26 219 8 191 17 253 49 351 40 118 101 189 188 215 l43
12 -3 56 c-3 55 -3 56 -45 71 -88 33 -144 98 -183 214 -32 99 -41 160 -49 351
-7 174 -8 182 -36 234 -32 58 -89 103 -155 121 -42 12 -1532 12 -1570 1z m968
-476 c66 -20 131 -70 162 -125 21 -37 25 -58 25 -121 0 -67 -4 -81 -30 -125
-20 -32 -48 -60 -83 -80 l-52 -31 44 -17 c119 -46 176 -126 176 -251 0 -89
-29 -155 -94 -212 -83 -73 -103 -76 -428 -81 l-288 -3 0 530 0 531 258 0 c202
0 269 -3 310 -15z"/>
<path d="M1042 1238 l3 -153 135 0 c157 0 214 18 250 77 31 51 28 127 -7 169
-43 51 -75 59 -238 59 l-146 0 3 -152z"/>
<path d="M1040 781 l0 -171 158 0 c163 1 213 10 254 47 33 30 50 72 50 125 -1
67 -26 107 -87 138 -46 23 -63 25 -212 28 l-163 4 0 -171z"/>
</g>
</svg>
