<?xml version="1.0" standalone="no"?>
<!DOCTYPE svg PUBLIC "-//W3C//DTD SVG 20010904//EN"
 "http://www.w3.org/TR/2001/REC-SVG-20010904/DTD/svg10.dtd">
<svg version="1.0" xmlns="http://www.w3.org/2000/svg"
 width="918.000000pt" height="1032.000000pt" viewBox="0 0 918.000000 1032.000000"
 preserveAspectRatio="xMidYMid meet">

<g transform="translate(0.000000,1032.000000) scale(0.100000,-0.100000)"
fill="#000000" stroke="none">
<path d="M8160 7222 c-492 -285 -908 -527 -925 -539 -39 -28 -1243 -722 -1315
-758 -73 -37 -2621 -1505 -2638 -1519 -9 -9 2 -33 54 -110 363 -533 1039 -779
1663 -605 168 47 350 137 501 247 108 79 274 251 351 364 l65 97 60 -33 c83
-47 1258 -726 1262 -731 11 -10 -120 -211 -238 -365 -94 -122 -387 -415 -510
-510 -251 -193 -583 -378 -853 -475 -1118 -400 -2338 -137 -3181 685 -185 181
-289 304 -415 492 -55 81 -101 152 -103 158 -2 6 -411 -224 -908 -511 -498
-287 -907 -523 -909 -525 -10 -9 96 -148 158 -206 60 -57 282 -188 2015 -1187
1518 -876 1964 -1129 2023 -1147 170 -54 376 -54 546 0 59 18 505 271 2023
1147 2166 1249 2025 1160 2145 1343 67 101 114 215 135 324 21 110 21 4494 0
4604 -16 84 -69 227 -94 257 -17 19 -37 8 -912 -497z m-850 -1722 l0 -170 170
0 170 0 0 -170 0 -170 -170 0 -170 0 0 -170 0 -170 -170 0 -170 0 0 170 0 170
-170 0 -170 0 0 170 0 170 170 0 170 0 0 170 0 170 170 0 170 0 0 -170z m1280
0 l0 -170 170 0 170 0 0 -170 0 -170 -170 0 -170 0 0 -170 0 -170 -175 0 -175
0 0 170 0 170 -170 0 -170 0 0 170 0 170 170 0 170 0 0 170 0 170 175 0 175 0
0 -170z"/>
</g>
</svg>
