<?xml version="1.0" standalone="no"?>
<!DOCTYPE svg PUBLIC "-//W3C//DTD SVG 20010904//EN"
 "http://www.w3.org/TR/2001/REC-SVG-20010904/DTD/svg10.dtd">
<svg version="1.0" xmlns="http://www.w3.org/2000/svg"
 width="840.000000pt" height="859.000000pt" viewBox="0 0 840.000000 859.000000"
 preserveAspectRatio="xMidYMid meet">

<g transform="translate(0.000000,859.000000) scale(0.100000,-0.100000)"
fill="#FFC312" stroke="none">
<path d="M5364 6451 c-74 -34 -115 -123 -93 -203 17 -65 34 -93 128 -218 110
-145 110 -144 171 -328 59 -178 122 -310 180 -377 29 -34 40 -54 37 -69 -3
-12 -19 -73 -36 -136 -56 -214 -62 -359 -21 -537 43 -185 154 -333 250 -333
35 0 85 28 102 58 10 16 24 75 33 133 25 158 21 156 81 38 59 -115 142 -217
243 -301 35 -29 95 -81 132 -115 85 -79 101 -82 24 -5 -138 138 -354 498 -431
720 -10 28 -22 51 -25 50 -21 -8 -92 -111 -110 -157 -19 -52 -49 -217 -49
-273 0 -20 -5 -28 -18 -28 -48 0 -119 130 -148 270 -12 63 -15 116 -12 224 5
134 7 148 47 266 51 150 50 172 -11 238 -67 71 -101 141 -167 333 -32 97 -67
191 -76 210 -25 48 -91 145 -143 208 -52 65 -92 141 -92 175 0 29 22 54 56 62
51 13 233 -66 344 -150 l70 -54 117 -7 c133 -8 211 -31 337 -98 236 -126 442
-302 605 -521 79 -105 166 -252 200 -339 38 -95 201 -449 257 -558 24 -47 57
-98 73 -113 20 -19 78 -45 181 -82 155 -54 193 -75 390 -210 100 -69 140 -102
140 -116 0 -4 -31 -8 -69 -8 -38 0 -105 -5 -148 -11 -94 -13 -262 -65 -269
-83 -3 -8 2 -30 10 -51 47 -111 178 -221 391 -328 72 -36 168 -93 214 -128
139 -106 127 -99 103 -53 -11 23 -78 99 -149 170 -104 105 -146 139 -223 184
-91 53 -170 116 -170 137 0 13 148 52 239 63 99 13 202 41 208 57 8 21 -102
139 -212 226 -154 122 -252 183 -392 244 -70 30 -136 63 -146 72 -29 25 -198
376 -311 646 -96 228 -313 504 -540 688 -119 95 -306 219 -382 253 -93 41
-240 73 -340 74 -45 0 -57 5 -110 46 -107 84 -300 164 -394 164 -19 0 -53 -9
-76 -19z"/>
<path d="M5896 5931 c-3 -4 10 -26 29 -49 19 -22 44 -61 55 -86 22 -52 32 -56
54 -24 30 43 12 119 -36 152 -24 17 -93 22 -102 7z"/>
<path d="M214 3806 c-104 -24 -156 -62 -174 -127 -6 -20 -10 -260 -10 -596 l0
-563 140 0 140 0 2 535 3 536 218 -484 c120 -267 229 -500 242 -520 50 -73
198 -108 317 -73 98 28 107 43 353 592 l220 490 3 -538 2 -538 140 0 140 0 0
556 c0 376 -4 569 -11 600 -23 89 -122 138 -279 138 -73 0 -92 -4 -137 -27
-28 -15 -64 -42 -78 -61 -20 -26 -307 -653 -450 -981 l-13 -29 -15 34 c-17 42
-361 836 -388 898 -61 140 -193 197 -365 158z"/>
<path d="M3975 3776 c-115 -28 -199 -85 -237 -160 -17 -33 -22 -65 -26 -161
-3 -75 0 -136 7 -163 15 -53 77 -119 144 -151 97 -47 140 -53 407 -61 279 -7
325 -15 366 -63 22 -26 24 -37 24 -123 0 -98 -8 -126 -44 -155 -42 -35 -98
-39 -505 -39 l-401 0 0 -90 0 -90 440 0 c280 0 458 4 492 11 133 28 264 121
287 205 14 49 14 258 1 303 -12 42 -71 106 -125 133 -110 57 -132 61 -430 67
-379 9 -385 12 -385 200 0 89 2 103 23 126 12 14 40 30 62 35 22 5 228 10 458
10 l417 0 0 90 0 90 -462 -1 c-331 0 -477 -4 -513 -13z"/>
<path d="M5402 3775 c-131 -29 -222 -89 -264 -173 -23 -47 -23 -49 -23 -442 0
-312 3 -403 14 -434 20 -59 91 -129 161 -160 113 -51 194 -59 500 -53 l275 6
103 -94 104 -95 159 0 159 0 -128 116 c-70 64 -128 120 -130 124 -2 5 6 11 18
15 34 11 89 64 113 109 22 40 22 48 22 456 0 406 0 416 -22 455 -46 86 -134
142 -265 169 -103 21 -699 22 -796 1z m754 -193 c75 -44 74 -37 74 -427 0
-371 -2 -384 -52 -419 -20 -15 -25 -11 -119 75 l-97 90 -158 -3 -157 -3 106
-95 106 -95 -147 -3 c-175 -3 -201 0 -243 35 -57 49 -59 60 -59 423 0 363 1
368 60 410 47 33 104 39 385 37 253 -2 261 -3 301 -25z"/>
<path d="M6662 3278 c3 -469 5 -516 21 -553 27 -59 84 -114 154 -146 112 -52
192 -59 644 -59 l409 0 0 89 0 90 -422 3 c-390 3 -426 4 -459 22 -71 37 -69
17 -69 570 l0 496 -140 0 -141 0 3 -512z"/>
<path d="M3220 3050 l0 -360 -317 0 c-334 0 -374 4 -420 45 l-28 23 -3 321 -3
321 -135 0 -134 0 0 -324 c0 -182 4 -336 10 -350 15 -41 80 -106 133 -133 111
-56 115 -56 517 -62 l375 -6 3 -63 c3 -60 1 -65 -30 -96 -53 -53 -87 -56 -574
-56 l-435 0 3 -87 3 -88 490 0 c485 0 491 0 565 23 126 40 201 95 236 177 16
36 18 92 20 540 1 275 0 508 -3 518 -4 15 -19 17 -139 17 l-134 0 0 -360z"/>
<path d="M7960 2685 c0 -10 10 -15 30 -15 l30 0 0 -81 c0 -71 2 -80 18 -77 14
3 17 16 20 81 3 74 4 77 27 77 16 0 25 6 25 15 0 12 -15 15 -75 15 -60 0 -75
-3 -75 -15z"/>
<path d="M8152 2608 c2 -75 6 -93 18 -93 12 0 16 16 18 70 l3 70 27 -69 c15
-38 32 -71 39 -73 7 -3 21 22 34 57 12 33 26 63 30 66 5 3 9 -24 9 -60 0 -52
3 -66 15 -66 12 0 15 17 15 95 l0 95 -29 0 c-22 0 -30 -6 -35 -23 -3 -13 -13
-41 -22 -62 l-16 -40 -25 63 c-23 56 -28 62 -54 62 l-30 0 3 -92z"/>
</g>
</svg>
