<?xml version="1.0" standalone="no"?>
<!DOCTYPE svg PUBLIC "-//W3C//DTD SVG 20010904//EN"
 "http://www.w3.org/TR/2001/REC-SVG-20010904/DTD/svg10.dtd">
<svg version="1.0" xmlns="http://www.w3.org/2000/svg"
 width="260.000000pt" height="290.000000pt" viewBox="0 0 260.000000 290.000000"
 preserveAspectRatio="xMidYMid meet">

<g transform="translate(0.000000,290.000000) scale(0.100000,-0.100000)"
fill="#FFC312" stroke="none">
<path d="M480 2539 c0 -14 48 -69 143 -163 151 -150 203 -226 233 -339 81
-310 -60 -594 -491 -986 l-80 -73 85 47 c47 25 119 62 160 81 41 20 134 64
205 99 72 35 189 86 260 114 72 27 148 57 170 66 22 10 40 16 40 15 0 -1 11 3
25 8 49 21 307 101 425 132 66 18 183 49 260 70 221 61 540 130 597 130 15 0
28 5 28 11 0 22 -89 135 -161 205 -149 144 -333 237 -624 317 -130 36 -204 50
-660 127 -410 69 -559 104 -596 141 -19 19 -19 18 -19 -2z m213 -116 c34 -9
65 -22 70 -28 10 -13 58 -167 54 -171 -2 -2 -22 23 -46 56 -24 33 -67 82 -97
110 -29 27 -51 50 -48 50 2 0 32 -8 67 -17z m224 -52 c54 -11 117 -22 141 -26
l43 -7 -73 -50 c-40 -28 -88 -63 -106 -79 -37 -32 -52 -36 -52 -14 0 9 -16 57
-35 106 -38 100 -39 103 -26 95 5 -4 53 -15 108 -25z m262 -229 c1 -75 -1 -83
-16 -78 -10 3 -70 22 -133 42 l-115 36 65 60 c36 32 88 74 115 93 l50 33 17
-51 c10 -31 17 -86 17 -135z m145 158 c66 -12 146 -26 176 -34 l55 -12 -84
-43 c-47 -24 -120 -65 -162 -91 l-78 -48 -6 56 c-3 32 -12 85 -20 119 -17 71
-17 73 -9 73 4 0 61 -9 128 -20z m275 -114 c-14 -76 -99 -256 -120 -256 -5 0
-54 23 -109 51 -99 51 -100 51 -77 68 75 58 282 181 303 181 8 0 9 -13 3 -44z
m186 8 c123 -38 268 -95 258 -104 -4 -4 -53 -19 -108 -33 -55 -15 -160 -47
-234 -72 -74 -25 -135 -44 -137 -42 -1 1 11 40 27 86 16 47 34 105 40 130 17
83 5 80 154 35z m-747 -166 c40 -12 76 -26 79 -31 3 -6 -10 -24 -29 -41 -20
-17 -68 -59 -107 -94 l-70 -63 0 131 -1 130 28 -6 c15 -3 60 -15 100 -26z
m1037 5 c-43 -67 -221 -300 -293 -383 -2 -3 -20 15 -41 40 -20 25 -64 75 -98
111 -35 36 -63 69 -63 72 0 15 212 100 395 158 117 36 122 36 100 2z m215 -79
c65 -47 200 -172 200 -184 0 -3 -53 -12 -117 -19 -104 -11 -444 -69 -513 -88
-19 -5 -8 11 51 74 77 81 130 152 188 255 l32 58 47 -24 c26 -13 76 -45 112
-72z m-1151 -80 c-20 -66 -56 -144 -87 -191 l-14 -23 -52 42 c-28 23 -53 43
-55 45 -3 2 6 15 20 29 34 38 200 176 205 171 2 -2 -5 -35 -17 -73z m181 40
c44 -20 80 -40 80 -45 0 -4 -53 -35 -117 -70 -65 -34 -129 -69 -142 -78 l-23
-15 19 40 c11 21 34 76 53 122 18 45 36 82 42 82 5 0 45 -16 88 -36z m290
-180 c97 -76 123 -101 114 -107 -5 -3 -37 -12 -70 -21 -50 -13 -419 -132 -474
-153 -8 -3 28 39 80 93 52 55 127 136 165 180 l70 82 30 -15 c16 -9 55 -35 85
-59z m-220 51 c0 -24 -256 -345 -275 -345 -3 0 -5 17 -5 38 -1 20 -9 61 -19
90 l-18 52 51 29 c28 16 96 54 151 85 95 53 115 62 115 51z m-460 -141 c22
-15 40 -28 40 -30 0 -2 -26 -22 -57 -46 -32 -23 -70 -53 -85 -67 -34 -30 -35
-22 -4 32 13 23 32 63 41 90 10 26 19 47 22 47 2 0 21 -12 43 -26z m127 -140
c13 -21 23 -51 23 -65 0 -24 -9 -29 -127 -74 -71 -26 -150 -59 -176 -72 -27
-13 -51 -23 -53 -20 -2 2 26 27 62 56 36 29 103 90 148 136 44 45 86 82 91 80
6 -1 20 -19 32 -41z m-177 -40 c-72 -72 -235 -204 -254 -204 -5 0 9 19 30 43
22 23 48 53 59 67 18 23 221 170 234 170 3 0 -28 -34 -69 -76z"/>
</g>
</svg>
